HIERARCHY
ROOT RootJoint
{
    OFFSET   0.000000   0.000000   0.000000
    CHANNELS 6 Xposition Yposition Zposition Xrotation Yrotation Zrotation
    JOINT pelvis_lowerback
    {
        OFFSET   0.000000   0.093605   0.000000
        CHANNELS 3 Xrotation Yrotation Zrotation
        JOINT lowerback_torso
        {
            OFFSET   0.000000   0.100000   0.000000
            CHANNELS 3 Xrotation Yrotation Zrotation
            JOINT torso_head
            {
                OFFSET   0.000000   0.282350   0.000000
                CHANNELS 3 Xrotation Yrotation Zrotation
                End Site
                {
                    OFFSET   0.000000   0.192650   0.000000
                }
            }
            JOINT rTorso_Clavicle
            {
                OFFSET  -0.001000   0.157500   0.000000
                CHANNELS 3 Xrotation Yrotation Zrotation
                JOINT rShoulder
                {
                    OFFSET  -0.117647   0.000000   0.000000
                    CHANNELS 3 Xrotation Yrotation Zrotation
                    JOINT rElbow
                    {
                        OFFSET  -0.245000   0.000000   0.000000
                        CHANNELS 3 Xrotation Yrotation Zrotation
                        JOINT rWrist
                        {
                            OFFSET  -0.240000   0.000000   0.000000
                            CHANNELS 3 Xrotation Yrotation Zrotation
                            End Site
                            {
                                OFFSET  -0.116353  -0.002500   0.000000
                            }
                        }
                    }
                }
            }
            JOINT lTorso_Clavicle
            {
                OFFSET   0.001000   0.157500   0.000000
                CHANNELS 3 Xrotation Yrotation Zrotation
                JOINT lShoulder
                {
                    OFFSET   0.117647   0.000000   0.000000
                    CHANNELS 3 Xrotation Yrotation Zrotation
                    JOINT lElbow
                    {
                        OFFSET   0.245000   0.000000   0.000000
                        CHANNELS 3 Xrotation Yrotation Zrotation
                        JOINT lWrist
                        {
                            OFFSET   0.240000   0.000000   0.000000
                            CHANNELS 3 Xrotation Yrotation Zrotation
                            End Site
                            {
                                OFFSET   0.116353  -0.002500   0.000000
                            }
                        }
                    }
                }
            }
        }
    }
    JOINT rHip
    {
        OFFSET  -0.100000  -0.051395   0.000000
        CHANNELS 3 Xrotation Yrotation Zrotation
        JOINT rKnee
        {
            OFFSET   0.000000  -0.410000   0.000000
            CHANNELS 3 Xrotation Yrotation Zrotation
            JOINT rAnkle
            {
                OFFSET   0.000000  -0.390000   0.000000
                CHANNELS 3 Xrotation Yrotation Zrotation
                JOINT rToeJoint
                {
                    OFFSET   0.000000  -0.050000   0.130000
                    CHANNELS 3 Xrotation Yrotation Zrotation
                    End Site
                    {
                        OFFSET  -0.010000   0.002000   0.060000
                    }
                }
            }
        }
    }
    JOINT lHip
    {
        OFFSET   0.100000  -0.051395   0.000000
        CHANNELS 3 Xrotation Yrotation Zrotation
        JOINT lKnee
        {
            OFFSET   0.000000  -0.410000   0.000000
            CHANNELS 3 Xrotation Yrotation Zrotation
            JOINT lAnkle
            {
                OFFSET   0.000000  -0.390000   0.000000
                CHANNELS 3 Xrotation Yrotation Zrotation
                JOINT lToeJoint
                {
                    OFFSET   0.000000  -0.050000   0.130000
                    CHANNELS 3 Xrotation Yrotation Zrotation
                    End Site
                    {
                        OFFSET   0.010000   0.002000   0.060000
                    }
                }
            }
        }
    }
}
MOTION
Frames: 17
Frame Time:   0.008333
 -2.376719   0.925631   3.975860   0.000000   0.000000   0.000000   0.000000   0.000000   0.000000   0.000000   0.000000   0.000000   0.000000   0.000000   0.000000   0.000000   0.000000   0.000000   0.000000   0.000000   0.000000   0.000000   0.000000   0.000000   0.000000   0.000000   0.000000   0.000000   0.000000   0.000000   0.000000   0.000000   0.000000   0.000000   0.000000   0.000000   0.000000   0.000000   0.000000   0.000000   0.000000   0.000000   0.000000   0.000000   0.000000   0.000000   0.000000   0.000000   0.000000   0.000000   0.000000   0.000000   0.000000   0.000000   0.000000   0.000000   0.000000   0.000000   0.000000   0.000000   0.000000   0.000000   0.000000
 -2.377567   0.925577   3.974348  -0.311709  -0.066031  -0.744335   0.579557   0.074998   0.581101   0.278570  -0.308372   0.359362  -0.058653   0.027066   0.101372   0.007783  -0.712926  -0.808196   0.241176   0.486393   2.245382   0.052110   3.593036  -0.026582   0.035979  -1.475244  -1.743331   0.131951   0.291047   0.107139   1.087385   0.463460  -2.344670   0.018943  -1.059162   0.016391   0.038228   0.126174   2.098042  -0.506152   0.037954   0.960294   2.598380  -0.004896  -0.000342  -2.416303  -0.761242  -0.783892   0.369384   0.001812  -0.002553  -1.069393  -0.239338   1.021046   3.571565  -0.008974  -0.008703  -2.771998   0.019651  -0.325621   0.452852   0.000208  -0.001094
 -2.378724   0.925476   3.972747  -0.809008  -0.331326  -1.552962   1.259470   0.225644   1.154729   0.759861  -0.531960   0.760570  -0.033339   0.044252   0.247566   0.013864  -1.294654  -1.150694   0.435831   1.098160   4.692923   0.120591   7.329684  -0.051899   0.101045  -1.874155  -2.945878   0.273831   0.588279  -0.322016   2.185269   0.884620  -5.138618   0.042362  -2.063117   0.029786   0.131974   0.041508   3.576708  -0.796635   0.065657   2.023532   5.361145  -0.010367  -0.004872  -4.681626  -1.446724  -1.540452   0.615401   0.002499  -0.004017  -2.126512  -0.483516   2.203987   7.499853  -0.022134  -0.020571  -5.346090   0.055761  -0.623158   0.851081  -0.000132  -0.002334
 -2.380001   0.925052   3.971170  -1.333346  -0.739583  -2.314441   1.934883   0.432835   1.654603   1.277258  -0.668495   1.116238   0.013628   0.058594   0.396378   0.023273  -1.749424  -1.158519   0.584156   1.749375   7.210210   0.190973  11.100925  -0.071667   0.173981  -1.907934  -3.625314   0.409474   0.853875  -1.081240   3.288950   1.236884  -8.210505   0.065157  -3.003609   0.039510   0.232219  -0.105225   4.454185  -0.954541   0.084451   3.037067   8.014662  -0.015221  -0.011181  -6.801647  -2.058656  -2.269098   0.842959   0.002904  -0.005184  -3.202066  -0.731802   3.389578  11.417881  -0.036540  -0.031487  -7.743301   0.103441  -0.897186   1.236304  -0.000712  -0.003547
 -2.381321   0.924127   3.969677  -1.831777  -1.254889  -3.014932   2.572509   0.679460   2.077335   1.776678  -0.739212   1.412848   0.062262   0.071859   0.537313   0.040524  -2.108096  -0.947100   0.692502   2.411553   9.722626   0.255770  14.890209  -0.085984   0.245501  -1.795151  -3.913005   0.535829   1.089677  -2.039660   4.399379   1.516024 -11.473105   0.085072  -3.884647   0.046162   0.332480  -0.282128   4.897007  -1.025172   0.099657   3.974575  10.519853  -0.019379  -0.017774  -8.787875  -2.604889  -2.969283   1.047988   0.003096  -0.005995  -4.264579  -0.983688   4.546389  15.089122  -0.049927  -0.039402  -9.978404   0.159887  -1.150187   1.594043  -0.001373  -0.004546
 -2.382632   0.922578   3.968278  -2.291344  -1.842086  -3.658250   3.168928   0.947070   2.429507   2.244141  -0.765068   1.653548   0.107066   0.084228   0.668725   0.066952  -2.396259  -0.598375   0.767022   3.066551  12.180452   0.311229  18.689922  -0.095877   0.311740  -1.615366  -3.926922   0.651182   1.300047  -3.111638   5.515463   1.721243 -14.868702   0.101203  -4.709723   0.050445   0.430176  -0.475597   5.040573  -1.026548   0.114594   4.835236  12.877824  -0.022862  -0.023692 -10.648521  -3.092365  -3.640372   1.232266   0.003139  -0.006474  -5.316610  -1.241629   5.668093  18.499419  -0.061367  -0.044010 -12.065468   0.222765  -1.384035   1.914844  -0.001995  -0.005228
 -2.383945   0.920301   3.966974  -2.712346  -2.473989  -4.247418   3.725933   1.227071   2.711449   2.679357  -0.757127   1.828300   0.147970   0.095378   0.795404   0.103840  -2.637321  -0.161921   0.814446   3.699554  14.557417   0.355637  22.494481  -0.102414   0.370464  -1.410950  -3.748088   0.756931   1.498905  -4.293598   6.571923   1.847013 -18.190713   0.112692  -5.480336   0.052513   0.523608  -0.670700   4.892766  -0.967232   0.132303   5.624962  15.097321  -0.025768  -0.028452 -12.390998  -3.527246  -4.282006   1.397953   0.003076  -0.006669  -6.356587  -1.507077   6.754255  21.663896  -0.070541  -0.045623 -14.014628   0.290155  -1.600383   2.201172  -0.002530  -0.005605
 -2.385078   0.916762   3.965195  -2.968506  -3.069974  -4.782346   4.207674   1.584617   2.981436   3.076919  -0.699463   1.943883   0.112308   0.112987   0.874547   0.248244  -2.881107  -0.315471   1.148294   4.473652  16.970616   0.382445  26.259528  -0.127714   0.391579  -1.348074  -3.120691   0.877964   1.678959  -4.861151   7.423080   1.765700 -21.654625   0.118825  -6.245675   0.052943   0.570091  -0.962993   4.022626  -0.788058   0.093176   6.379542  16.630142  -0.026497  -0.029534 -14.061848  -4.136485  -4.980105   1.681672   0.003418  -0.008473  -7.981842  -1.614480   7.725955  25.304326  -0.076793  -0.038834 -13.642374   0.068468  -1.781310   2.397588  -0.002601  -0.005323
 -2.386097   0.912142   3.963278  -3.207476  -3.748770  -5.269959   4.699591   2.018702   3.207101   3.471208  -0.566950   2.013258   0.078926   0.133406   0.945813   0.371222  -3.053874  -0.625307   1.418940   5.245138  19.115094   0.394824  30.038955  -0.150657   0.427972  -1.256024  -2.548015   0.983755   1.849783  -5.275022   8.208934   1.647362 -24.818876   0.119449  -6.965089   0.052058   0.610546  -1.295365   3.148853  -0.509790   0.071257   7.098859  18.000991  -0.027111  -0.030430 -15.635032  -4.687212  -5.649135   1.929505   0.003453  -0.009563  -9.678716  -1.734687   8.590504  28.747467  -0.079125  -0.034242 -13.261679  -0.140226  -1.950461   2.771009  -0.003066  -0.005894
 -2.386935   0.907294   3.961193  -3.380053  -4.565518  -5.620454   5.162852   2.521618   3.314933   3.846408  -0.357143   2.010001   0.050400   0.154245   1.009080   0.466776  -3.160882  -0.971834   1.627045   6.008995  21.060433   0.401535  33.831729  -0.171469   0.473797  -1.105771  -2.143417   1.082836   2.031068  -5.632729   8.938530   1.516183 -27.733928   0.116572  -7.630174   0.050185   0.641855  -1.589461   2.411450  -0.221019   0.066332   7.690004  19.269171  -0.027893  -0.031841 -17.108386  -5.183936  -6.287255   2.173277   0.003368  -0.010535 -11.269319  -1.917733   9.176733  32.262567  -0.079712  -0.037837 -13.527861  -0.479983  -2.288158  -2.698061  -0.002174   0.036660
 -2.387791   0.902191   3.958936  -3.477000  -5.338554  -5.928477   5.600155   3.015957   3.385556   4.194950  -0.127252   1.975795   0.025238   0.172212   1.066281   0.540518  -3.225808  -1.351224   1.782765   6.755398  22.837749   0.402170  37.485710  -0.189624   0.526030  -0.851995  -1.847468   1.171733   2.206118  -5.933053   9.612849   1.367589 -30.429427   0.111494  -8.248884   0.047592   0.666557  -1.852922   1.761160   0.090125   0.059735   8.281279  20.446229  -0.028554  -0.031849 -18.488972  -5.633276  -6.896294   2.401379   0.003134  -0.010943 -12.813234  -2.071793   9.698849  35.540602  -0.077950  -0.037812 -13.718987  -0.723576  -2.563364  -7.637869  -0.006278   0.058585
 -2.388674   0.897305   3.956407  -3.540583  -5.918664  -6.139368   6.072145   3.458674   3.378264   4.542037   0.075135   1.908179   0.002261   0.186688   1.118674   0.599236  -3.262781  -1.717532   1.895458   7.473136  24.481474   0.399660  40.906504  -0.206675   0.581119  -0.535358  -1.643557   1.235828   2.343603  -6.203888  10.223253   1.186721 -32.922771   0.105397  -8.830349   0.044604   0.686815  -2.107299   1.197714   0.460502   0.058421   8.829519  21.547110  -0.028666  -0.029487 -19.780204  -6.039880  -7.477486   2.621712   0.002818  -0.010714 -14.450934  -2.163054  10.080681  38.662267  -0.071803  -0.031322 -14.138238  -0.885848  -2.925541  -9.327642  -0.009604   0.051605
 -2.389640   0.892419   3.953789  -3.569951  -6.390257  -6.329052   6.529997   3.897252   3.364502   4.885004   0.280110   1.827403  -0.011670   0.200488   1.164513   0.647809  -3.284804  -2.096651   1.975705   8.153925  25.995279   0.394182  44.104701  -0.221578   0.636206  -0.199970  -1.482055   1.289046   2.472846  -6.435349  10.783353   0.995331 -35.236669   0.098554  -9.374604   0.041147   0.704370  -2.357419   0.678483   0.872109   0.071032   9.406722  22.592218  -0.028542  -0.026204 -20.989019  -6.405891  -8.029860   2.822519   0.002439  -0.010060 -16.053735  -2.261288  10.441810  41.568665  -0.064698  -0.023755 -14.354080  -1.020859  -3.206912 -11.070553  -0.011134   0.043939
 -2.390042   0.887830   3.951032  -3.410866  -6.751676  -6.050471   6.924523   4.391478   3.031092   5.060485   0.419074   1.661852  -0.147957  -0.002534   1.084932   0.687228  -3.222927  -2.636996   2.182026   8.642257  27.216928   0.390010  47.464498  -0.245067   0.614638  -0.026019  -0.979282   1.375518   2.664287  -6.140047  11.523303   0.715195 -37.510037   0.093263 -10.044424   0.039112   0.625216  -2.740385  -0.334694   1.528904   0.064492   9.409825  22.422852  -0.022088  -0.020580 -21.555555  -6.909157  -8.340722   3.276844   0.001799  -0.011829 -18.085763  -2.067648  10.300751  44.576480  -0.052194  -0.012002 -13.650445  -1.153855  -2.994791 -14.051832  -0.005399   0.032571
 -2.390156   0.883491   3.948025  -3.253201  -7.259423  -5.787371   7.334008   5.001988   2.795493   5.209988   0.659945   1.495039  -0.292141  -0.197190   0.989119   0.670273  -3.113462  -3.329982   2.324842   9.122260  28.229519   0.380898  50.621110  -0.264082   0.603902   0.249228  -0.622312   1.482393   2.896549  -5.705428  12.232736   0.477564 -39.544284   0.085302 -10.659044   0.035825   0.542565  -3.109795  -1.278763   2.012950   0.013778   9.283162  21.724862  -0.015215  -0.013436 -22.432976  -7.453680  -8.667946  -0.631498   0.001018   0.035244 -20.037336  -1.829344  10.196645  47.358371  -0.042542  -0.006517 -12.663458  -1.266937  -2.708929 -17.219805   0.001173   0.027243
 -2.391146   0.882849   3.946236  -3.491705  -7.053994  -6.339565   7.887183   5.422670   3.167430   5.502281   0.810674   1.711239  -0.402649  -0.385076   0.937487   0.662831  -3.037738  -3.884313   2.459311   9.527277  29.162709   0.377949  53.520438  -0.279476   0.603861   0.366874  -0.451533   1.559311   3.093690  -5.392037  12.873261   0.230109 -41.427372   0.077536 -11.223842   0.031208   0.461827  -3.376314  -1.993014   1.983752   0.017237   9.980919  22.116797  -0.012530  -0.009766 -22.765268  -7.646499  -9.009819  -0.126518   0.001729   0.028146 -21.353805  -1.863880  10.819711  49.701176  -0.028424   0.008421 -11.251514  -1.364865  -2.254838 -18.540216   0.005392   0.015717
 -2.391967   0.882790   3.945419  -3.692792  -6.695155  -6.596343   8.264429   5.855814   3.284101   5.735213   0.972700   1.890486  -0.496277  -0.558677   0.893145   0.684719  -3.011991  -4.471649   2.604407   9.899863  30.043516   0.370729  56.246579  -0.290199   0.595429   0.506063  -0.171691   1.670357   3.342716  -4.875625  13.506549   0.040016 -43.091094   0.068916 -11.738558   0.025367   0.381922  -3.590973  -2.653528   2.162626  -0.140026  10.336930  22.234216  -0.010080  -0.007579 -23.115973  -8.069938  -9.256573   0.620454   0.002336   0.020646 -22.605270  -1.809814  11.091062  51.806261  -0.014755   0.019435  -9.800542  -1.397051  -1.786204 -18.229874   0.003339   0.014399
